<?xml version="1.0" encoding="UTF-8" standalone="no"?> <svg id="Layer_1" data-name="Layer 1" xmlns="http://www.w3.org/2000/svg" viewBox="0 0 24 24"><defs></defs><title>a</title><path class="cls-1" d="M3 5C2.44772 5 2 5.44772 2 6V15.2878L3.55831 11.7816C4.03982 10.6982 5.11418 10 6.29975 10H19V9C19 8.44771 18.5523 8 18 8H11C10.7348 8 10.4804 7.89464 10.2929 7.70711L7.87868 5.29289C7.69114 5.10536 7.43679 5 7.17157 5H3ZM21 10.001C23.1278 10.0534 24.5351 12.2583 23.6639 14.2184L21.4417 19.2184C20.9602 20.3018 19.8858 21 18.7003 21H3C1.34315 21 0 19.6569 0 18V6C0 4.34315 1.34315 3 3 3H7.17157C7.96722 3 8.73028 3.31607 9.29289 3.87868L11.4142 6H18C19.6569 6 21 7.34315 21 9V10.001ZM6.29975 12C5.90456 12 5.54644 12.2327 5.38593 12.5939L2.57979 18.9077C2.70754 18.9669 2.84991 19 3 19H18.7003C19.0954 19 19.4536 18.7673 19.6141 18.4061L21.8363 13.4061C22.1302 12.7449 21.6461 12 20.9225 12H6.29975Z" />
</svg>
